<svg width="46" height="46" viewBox="0 0 46 46" fill="none" xmlns="http://www.w3.org/2000/svg">
<g clip-path="url(#clip0)">
<path d="M42.309 30.1937C39.4927 30.1937 36.7274 29.7533 34.107 28.8873C32.8229 28.4493 31.2444 28.8511 30.4607 29.656L25.2885 33.5605C19.2902 30.3586 15.5953 26.6649 12.4371 20.7116L16.2267 15.6741C17.2113 14.6909 17.5645 13.2546 17.1413 11.9069C16.2717 9.27271 15.8299 6.50876 15.8299 3.69126C15.83 1.65588 14.1741 0 12.1388 0H3.69114C1.65588 0 0 1.65588 0 3.69114C0 27.0206 18.9796 46 42.309 46C44.3442 46 46.0001 44.3441 46.0001 42.3089V33.8848C46 31.8496 44.3441 30.1937 42.309 30.1937Z" fill="#2593E4"/>
</g>
<defs>
<clipPath id="clip0">
<rect width="46" height="46" fill="white"/>
</clipPath>
</defs>
</svg>
