<svg width="60" height="61" viewBox="0 0 60 61" fill="none" xmlns="http://www.w3.org/2000/svg">
<g clip-path="url(#clip0)">
<path d="M53.6728 3.2785H14.8747C11.5076 3.2785 8.76819 5.99232 8.76819 9.31722L8.51815 43.4809H0.946514C0.409919 43.4809 0 43.9554 0 44.492V49.1937C0 53.5951 3.52227 57.1947 7.77328 57.3921V57.4485H40.4453V57.385C40.6883 57.3949 40.8353 57.4485 41.0023 57.4485H41.0256C45.5594 57.422 49.214 53.7265 49.1903 49.1928V19.3109H59.0535C59.5901 19.3109 60 18.8251 60 18.2889V9.66214C60.0062 6.156 57.1789 3.30365 53.6728 3.2785V3.2785ZM8.19838 55.5052H8.19174C4.73542 55.5052 1.94332 52.6486 1.94332 49.1928V45.4243H32.7935V49.1766C32.7859 51.3638 33.6499 53.4637 35.1942 55.0123C35.3584 55.1774 35.5301 55.2623 35.7056 55.5052H8.19838ZM47.247 49.1918C47.247 52.6486 44.4819 55.5052 41.0242 55.5052H41.0042C37.5294 55.4801 34.7288 52.6519 34.7368 49.1771V44.492C34.7397 43.9478 34.3094 43.4999 33.7652 43.4809H10.4615L10.7115 9.32386C10.7115 7.06409 12.5789 5.22182 14.8747 5.22182H49.0854C47.9781 6.4364 47.247 7.97312 47.247 9.68823V49.1918ZM58.0567 9.67922V17.3676H49.1903V9.68634C49.1903 7.25434 51.2133 5.22182 53.6443 5.22182H53.6714C56.1086 5.24602 58.0681 7.23441 58.0567 9.6721V9.67922Z" fill="#3BA2EC"/>
<g clip-path="url(#clip1)">
<path d="M39.3739 20.4103C39.3436 19.7433 39.3436 19.1066 39.3436 18.47C39.3436 17.9546 38.9495 17.5605 38.4341 17.5605C34.6445 17.5605 31.7645 16.4691 29.3695 14.1348C29.0057 13.8013 28.46 13.8013 28.0962 14.1348C25.7012 16.4691 22.8211 17.5605 19.0316 17.5605C18.5162 17.5605 18.1221 17.9546 18.1221 18.47C18.1221 19.1066 18.1221 19.7433 18.0918 20.4103C17.9705 26.7767 17.7886 35.5078 28.4297 39.1761L28.7328 39.2368L29.036 39.1761C39.6467 35.5078 39.4952 26.807 39.3739 20.4103ZM28.0052 29.2323C27.8233 29.3839 27.6111 29.4749 27.3686 29.4749H27.3383C27.0957 29.4749 26.8532 29.3536 26.7016 29.1717L23.8822 26.0491L25.2464 24.8365L27.4595 27.2921L32.3708 22.6234L33.6138 23.9573L28.0052 29.2323Z" fill="#3BA2EC"/>
</g>
</g>
<defs>
<clipPath id="clip0">
<rect y="0.363525" width="60" height="60" fill="white"/>
</clipPath>
<clipPath id="clip1">
<rect x="16.0563" y="13.8846" width="25.3521" height="25.3521" fill="white"/>
</clipPath>
</defs>
</svg>
