<svg width="60" height="59" viewBox="0 0 60 59" fill="none" xmlns="http://www.w3.org/2000/svg">
<path d="M37.3422 29.4699C29.855 29.4699 23.6781 23.3866 23.6781 15.8058C23.6781 8.31865 29.7614 2.14173 37.3422 2.14173C43.8935 2.14173 49.4153 6.82121 50.7255 12.9981H52.5973C51.2871 5.88532 44.923 0.363525 37.3422 0.363525C28.8255 0.363525 21.8999 7.28916 21.8999 15.8058C21.8999 24.3225 28.8255 31.2481 37.3422 31.2481C44.923 31.2481 51.2871 25.7263 52.5973 18.5199H50.7255C49.4153 24.7904 43.8935 29.4699 37.3422 29.4699Z" fill="#3BA2EC"/>
<path d="M37.3428 25.0713C32.2889 25.0713 28.0774 20.9533 28.0774 15.8059C28.0774 10.752 32.1953 6.54049 37.3428 6.54049C41.4607 6.54049 45.0171 9.25459 46.1402 12.9982H48.012C46.7953 8.22511 42.4902 4.6687 37.3428 4.6687C31.2594 4.6687 26.2992 9.62895 26.2992 15.7123C26.2992 21.7956 31.2594 26.7559 37.3428 26.7559C42.4902 26.7559 46.7953 23.1995 48.012 18.4264H46.1402C45.0171 22.2636 41.4607 25.0713 37.3428 25.0713Z" fill="#3BA2EC"/>
<path d="M37.3414 20.6725C34.7209 20.6725 32.4747 18.5199 32.4747 15.8058C32.4747 13.1853 34.6273 10.9392 37.3414 10.9392C39.026 10.9392 40.4299 11.7815 41.3658 12.9981H43.4247C42.3952 10.6584 40.0555 9.06738 37.3414 9.06738C33.6914 9.06738 30.6965 12.0623 30.6965 15.7123C30.6965 19.3622 33.6914 22.3571 37.3414 22.3571C40.0555 22.3571 42.3952 20.7661 43.4247 18.4264H41.3658C40.4299 19.8302 39.026 20.6725 37.3414 20.6725Z" fill="#3BA2EC"/>
<path d="M0.561218 46.9712H11.792V58.2955L0.561218 46.9712Z" fill="#3BA2EC"/>
<path d="M31.8206 39.1096V42.5724C30.6976 42.1981 29.9489 41.8237 29.9489 40.7942C29.8553 39.7647 30.7912 39.2032 31.8206 39.1096Z" fill="#3BA2EC"/>
<path d="M35.0954 47.1584C35.0954 48.1879 34.0659 48.7494 33.0364 48.843V45.2866C34.253 45.661 35.0954 46.0353 35.0954 47.1584Z" fill="#3BA2EC"/>
<path d="M37.3423 33.1199C27.7961 33.1199 20.0282 25.352 20.0282 15.8059C20.0282 13.1853 20.5897 10.752 21.6192 8.50586H2.7141C1.21667 8.50586 0 9.72252 0 11.22V45.0994H13.6641V58.7635H40.9923C42.4897 58.7635 43.7064 57.5468 43.7064 56.0494V31.8097C41.741 32.652 39.5884 33.1199 37.3423 33.1199ZM6.3641 14.4956H13.9449V16.3674H6.3641V14.4956ZM6.3641 22.7315H16.659V24.6033H6.3641V22.7315ZM6.3641 30.9674H17.5949V32.8392H6.3641V30.9674ZM6.3641 40.9815V39.1097H21.2449V40.9815H6.3641ZM23.959 49.2174H17.5949V47.3456H23.959V49.2174ZM33.0372 50.9956V52.3994H31.8205V50.9956C30.0423 50.8084 28.3577 50.0597 26.9538 48.843L28.4513 47.1584C29.5743 48.0943 30.6974 48.6558 31.9141 48.843V45.0058C29.2936 44.3507 27.609 43.5084 27.609 40.9815C27.609 38.5481 29.4807 37.1443 31.9141 36.9571V35.9276H33.2243V37.0507C34.7218 37.1443 36.032 37.6122 37.3423 38.5481L36.032 40.4199C35.1897 39.7648 34.2538 39.3905 33.2243 39.2969V43.0404H33.3179C35.8448 43.602 37.7166 44.5379 37.7166 47.1584C37.5295 49.4981 35.5641 50.902 33.0372 50.9956Z" fill="#3BA2EC"/>
<path d="M57.2764 15.8058L59.7097 13.3725C60.0841 12.9982 60.0841 12.4366 59.7097 12.0623C59.3354 11.6879 58.7738 11.6879 58.3995 12.0623L55.5918 14.87H37.3418C36.8738 14.87 36.4059 15.2443 36.4059 15.8058C36.4059 16.2738 36.7802 16.7417 37.3418 16.7417H55.5918L58.3995 19.5494C58.5866 19.7366 58.7738 19.8302 59.0546 19.8302C59.2418 19.8302 59.5225 19.7366 59.7097 19.5494C60.0841 19.1751 60.0841 18.6135 59.7097 18.2392L57.2764 15.8058Z" fill="#3BA2EC"/>
</svg>
