<svg width="58" height="59" viewBox="0 0 58 59" fill="none" xmlns="http://www.w3.org/2000/svg">
<g clip-path="url(#clip0)">
<path d="M53.1666 0.363525H4.83337C2.16526 0.366697 0.00317188 2.52878 0 5.1969V53.5303C0.00317188 56.1983 2.16526 58.3604 4.83337 58.3635H53.1667C55.8347 58.3604 57.9968 56.1983 58.0001 53.5302V5.1969C57.9968 2.52878 55.8347 0.366697 53.1666 0.363525ZM56.0666 53.5302C56.0666 55.1317 54.7683 56.4302 53.1666 56.4302H4.83337C3.2318 56.4302 1.93337 55.1318 1.93337 53.5302V10.0302H56.0667V53.5302H56.0666ZM56.0666 8.0969H1.93337V5.1969C1.93337 3.59533 3.2318 2.2969 4.83337 2.2969H53.1667C54.7683 2.2969 56.0667 3.59533 56.0667 5.1969V8.0969H56.0666Z" fill="#3BA2EC"/>
<path d="M6.76664 4.23016H5.80001C5.26611 4.23016 4.83338 4.6629 4.83338 5.19679C4.83338 5.73069 5.26611 6.16353 5.80001 6.16353H6.76664C7.30053 6.16353 7.73326 5.7308 7.73326 5.19691C7.73326 4.66301 7.30053 4.23016 6.76664 4.23016Z" fill="#3BA2EC"/>
<path d="M11.0006 4.3075C10.7673 4.20113 10.4992 4.20113 10.266 4.3075C10.1489 4.35655 10.041 4.4252 9.94699 4.5105C9.57316 4.89169 9.57316 5.50194 9.94699 5.88313C10.041 5.96843 10.1489 6.03708 10.266 6.08613C10.5 6.18921 10.7666 6.18921 11.0006 6.08613C11.1178 6.03708 11.2256 5.96843 11.3196 5.88313C11.6935 5.50194 11.6935 4.89169 11.3196 4.5105C11.2256 4.4252 11.1178 4.35655 11.0006 4.3075Z" fill="#3BA2EC"/>
<path d="M14.8706 4.29846C14.5079 4.14791 14.0901 4.23163 13.8136 4.51053C13.7283 4.60455 13.6596 4.71239 13.6106 4.82953C13.5074 5.06356 13.5074 5.33012 13.6106 5.56415C13.6596 5.68129 13.7283 5.78913 13.8136 5.88315C14.1948 6.25698 14.805 6.25698 15.1862 5.88315C15.2715 5.78913 15.3401 5.68129 15.3892 5.56415C15.4433 5.4494 15.4699 5.32366 15.4666 5.19678C15.4689 4.80415 15.2333 4.44901 14.8706 4.29846Z" fill="#3BA2EC"/>
<path d="M52.2002 4.23016H19.3336C18.7997 4.23016 18.3669 4.6629 18.3669 5.19679C18.3669 5.73069 18.7997 6.16342 19.3336 6.16342H52.2002C52.7341 6.16342 53.1668 5.73069 53.1668 5.19679C53.1668 4.6629 52.7341 4.23016 52.2002 4.23016Z" fill="#3BA2EC"/>
<g clip-path="url(#clip1)">
<path d="M29 43.8768C34.0349 43.8768 36.4157 38.741 37.531 34.3635H29V43.8768Z" fill="#3BA2EC"/>
<path d="M20.4729 34.3625H29V24.9347L19.5599 28.9522C19.6493 29.9813 19.8872 32.0678 20.4729 34.3625Z" fill="#3BA2EC"/>
<path d="M28.9999 15.3635C18.5069 15.3635 10.0006 23.8706 10.0006 34.3631C10.0006 44.8557 18.5069 53.3635 28.9999 53.3635C39.4928 53.3635 47.9999 44.8562 47.9999 34.3631C47.9999 23.8701 39.4929 15.3635 28.9999 15.3635ZM40.4578 28.3621C40.4279 29.076 39.5997 45.8479 29.0003 45.8479C18.4005 45.8479 17.5724 29.0762 17.5425 28.3621L17.5139 27.6807L29 22.7923L40.4868 27.6807L40.4578 28.3621Z" fill="#3BA2EC"/>
</g>
</g>
<defs>
<clipPath id="clip0">
<rect y="0.363525" width="58" height="58" fill="white"/>
</clipPath>
<clipPath id="clip1">
<rect x="10" y="15.3635" width="38" height="38" fill="white"/>
</clipPath>
</defs>
</svg>
