<svg width="64" height="64" viewBox="0 0 64 64" fill="none" xmlns="http://www.w3.org/2000/svg">
<mask id="path-1-outside-1" maskUnits="userSpaceOnUse" x="0" y="-0.636475" width="55" height="56" fill="black">
<rect fill="white" y="-0.636475" width="55" height="56"/>
<path fill-rule="evenodd" clip-rule="evenodd" d="M28.125 54.6135C13.1443 54.6135 1 42.4692 1 27.4885C1 12.5078 13.1443 0.363525 28.125 0.363525C41.3095 0.363525 52.2971 9.77026 54.7423 22.2385H53.0646C50.6988 10.9433 40.8534 2.39781 28.9469 2.02048V7.76124C28.9469 8.21521 28.5789 8.58321 28.125 8.58321C27.671 8.58321 27.303 8.21521 27.303 7.76124V2.02048C13.8836 2.44575 3.08222 13.2471 2.65694 26.6665H8.39772C8.85168 26.6665 9.21969 27.0345 9.21969 27.4885C9.21969 27.9425 8.85168 28.3105 8.39772 28.3105H2.65694C3.08222 41.7299 13.8836 52.5312 27.303 52.9565V47.2157C27.303 46.7618 27.671 46.3938 28.125 46.3938C28.5789 46.3938 28.9469 46.7618 28.9469 47.2157V52.9565L29.0008 52.9547V54.5996C28.71 54.6088 28.418 54.6135 28.125 54.6135ZM26.6269 23.6602C27.0911 23.4784 27.5964 23.3787 28.125 23.3787C29.2281 23.3787 30.2297 23.8133 30.9679 24.5206L38.3427 19.4149C38.7159 19.1566 39.228 19.2497 39.4864 19.6229C39.7448 19.9961 39.6517 20.5082 39.2784 20.7666L31.9045 25.8716C32.1171 26.3679 32.2348 26.9144 32.2348 27.4885C32.2348 29.7583 30.3948 31.5983 28.125 31.5983C25.8552 31.5983 24.0151 29.7583 24.0151 27.4885C24.0151 26.3392 24.4869 25.3001 25.2473 24.5542L18.3932 13.9616C18.1466 13.5804 18.2557 13.0715 18.6368 12.8249C19.0179 12.5783 19.5268 12.6874 19.7734 13.0685L26.6269 23.6602ZM28.125 29.9544C29.4869 29.9544 30.5909 28.8504 30.5909 27.4885C30.5909 26.1266 29.4869 25.0226 28.125 25.0226C26.7631 25.0226 25.6591 26.1266 25.6591 27.4885C25.6591 28.8504 26.7631 29.9544 28.125 29.9544Z"/>
</mask>
<path fill-rule="evenodd" clip-rule="evenodd" d="M28.125 54.6135C13.1443 54.6135 1 42.4692 1 27.4885C1 12.5078 13.1443 0.363525 28.125 0.363525C41.3095 0.363525 52.2971 9.77026 54.7423 22.2385H53.0646C50.6988 10.9433 40.8534 2.39781 28.9469 2.02048V7.76124C28.9469 8.21521 28.5789 8.58321 28.125 8.58321C27.671 8.58321 27.303 8.21521 27.303 7.76124V2.02048C13.8836 2.44575 3.08222 13.2471 2.65694 26.6665H8.39772C8.85168 26.6665 9.21969 27.0345 9.21969 27.4885C9.21969 27.9425 8.85168 28.3105 8.39772 28.3105H2.65694C3.08222 41.7299 13.8836 52.5312 27.303 52.9565V47.2157C27.303 46.7618 27.671 46.3938 28.125 46.3938C28.5789 46.3938 28.9469 46.7618 28.9469 47.2157V52.9565L29.0008 52.9547V54.5996C28.71 54.6088 28.418 54.6135 28.125 54.6135ZM26.6269 23.6602C27.0911 23.4784 27.5964 23.3787 28.125 23.3787C29.2281 23.3787 30.2297 23.8133 30.9679 24.5206L38.3427 19.4149C38.7159 19.1566 39.228 19.2497 39.4864 19.6229C39.7448 19.9961 39.6517 20.5082 39.2784 20.7666L31.9045 25.8716C32.1171 26.3679 32.2348 26.9144 32.2348 27.4885C32.2348 29.7583 30.3948 31.5983 28.125 31.5983C25.8552 31.5983 24.0151 29.7583 24.0151 27.4885C24.0151 26.3392 24.4869 25.3001 25.2473 24.5542L18.3932 13.9616C18.1466 13.5804 18.2557 13.0715 18.6368 12.8249C19.0179 12.5783 19.5268 12.6874 19.7734 13.0685L26.6269 23.6602ZM28.125 29.9544C29.4869 29.9544 30.5909 28.8504 30.5909 27.4885C30.5909 26.1266 29.4869 25.0226 28.125 25.0226C26.7631 25.0226 25.6591 26.1266 25.6591 27.4885C25.6591 28.8504 26.7631 29.9544 28.125 29.9544Z" fill="#3BA2EC"/>
<path d="M54.7423 22.2385V22.4385H54.9853L54.9385 22.2L54.7423 22.2385ZM53.0646 22.2385L52.8688 22.2795L52.9021 22.4385H53.0646V22.2385ZM28.9469 2.02048L28.9533 1.82058L28.7469 1.81404V2.02048H28.9469ZM27.303 2.02048H27.503V1.81404L27.2967 1.82058L27.303 2.02048ZM2.65694 26.6665L2.45704 26.6602L2.45051 26.8665H2.65694V26.6665ZM2.65694 28.3105V28.1105H2.45051L2.45704 28.3168L2.65694 28.3105ZM27.303 52.9565L27.2967 53.1564L27.503 53.1629V52.9565H27.303ZM28.9469 52.9565H28.7469V53.1632L28.9535 53.1564L28.9469 52.9565ZM29.0008 52.9547H29.2008V52.7481L28.9943 52.7548L29.0008 52.9547ZM29.0008 54.5996L29.0072 54.7995L29.2008 54.7933V54.5996H29.0008ZM26.6269 23.6602L26.459 23.7689L26.5477 23.906L26.6998 23.8465L26.6269 23.6602ZM30.9679 24.5206L30.8295 24.665L30.9475 24.778L31.0818 24.685L30.9679 24.5206ZM38.3427 19.4149L38.2288 19.2505L38.3427 19.4149ZM39.2784 20.7666L39.3923 20.931L39.2784 20.7666ZM31.9045 25.8716L31.7907 25.7072L31.6564 25.8002L31.7207 25.9503L31.9045 25.8716ZM25.2473 24.5542L25.3873 24.697L25.5039 24.5827L25.4152 24.4456L25.2473 24.5542ZM18.3932 13.9616L18.2253 14.0702L18.3932 13.9616ZM18.6368 12.8249L18.7454 12.9928L18.6368 12.8249ZM19.7734 13.0685L19.6055 13.1771L19.7734 13.0685ZM0.8 27.4885C0.8 42.5797 13.0338 54.8135 28.125 54.8135V54.4135C13.2547 54.4135 1.2 42.3587 1.2 27.4885H0.8ZM28.125 0.163525C13.0338 0.163525 0.8 12.3973 0.8 27.4885H1.2C1.2 12.6182 13.2547 0.563525 28.125 0.563525V0.163525ZM54.9385 22.2C52.4753 9.63974 41.407 0.163525 28.125 0.163525V0.563525C41.2121 0.563525 52.1189 9.90078 54.546 22.277L54.9385 22.2ZM53.0646 22.4385H54.7423V22.0385H53.0646V22.4385ZM28.9406 2.22038C40.7532 2.59473 50.5216 11.0731 52.8688 22.2795L53.2603 22.1975C50.876 10.8136 40.9535 2.20088 28.9533 1.82058L28.9406 2.22038ZM29.1469 7.76124V2.02048H28.7469V7.76124H29.1469ZM28.125 8.78321C28.6894 8.78321 29.1469 8.32566 29.1469 7.76124H28.7469C28.7469 8.10475 28.4685 8.38321 28.125 8.38321V8.78321ZM27.103 7.76124C27.103 8.32566 27.5606 8.78321 28.125 8.78321V8.38321C27.7815 8.38321 27.503 8.10475 27.503 7.76124H27.103ZM27.103 2.02048V7.76124H27.503V2.02048H27.103ZM2.85684 26.6729C3.27877 13.3589 13.9954 2.64231 27.3093 2.22038L27.2967 1.82058C13.7717 2.2492 2.88566 13.1353 2.45704 26.6602L2.85684 26.6729ZM8.39772 26.4665H2.65694V26.8665H8.39772V26.4665ZM9.41969 27.4885C9.41969 26.9241 8.96214 26.4665 8.39772 26.4665V26.8665C8.74122 26.8665 9.01969 27.145 9.01969 27.4885H9.41969ZM8.39772 28.5105C8.96214 28.5105 9.41969 28.0529 9.41969 27.4885H9.01969C9.01969 27.832 8.74122 28.1105 8.39772 28.1105V28.5105ZM2.65694 28.5105H8.39772V28.1105H2.65694V28.5105ZM27.3093 52.7566C13.9954 52.3347 3.27877 41.6181 2.85684 28.3041L2.45704 28.3168C2.88566 41.8417 13.7717 52.7278 27.2967 53.1564L27.3093 52.7566ZM27.103 47.2157V52.9565H27.503V47.2157H27.103ZM28.125 46.1938C27.5606 46.1938 27.103 46.6513 27.103 47.2157H27.503C27.503 46.8722 27.7815 46.5938 28.125 46.5938V46.1938ZM29.1469 47.2157C29.1469 46.6513 28.6894 46.1938 28.125 46.1938V46.5938C28.4685 46.5938 28.7469 46.8722 28.7469 47.2157H29.1469ZM29.1469 52.9565V47.2157H28.7469V52.9565H29.1469ZM28.9943 52.7548L28.9404 52.7566L28.9535 53.1564L29.0074 53.1546L28.9943 52.7548ZM29.2008 54.5996V52.9547H28.8008V54.5996H29.2008ZM28.125 54.8135C28.4202 54.8135 28.7142 54.8088 29.0072 54.7995L28.9945 54.3997C28.7058 54.4088 28.4159 54.4135 28.125 54.4135V54.8135ZM28.125 23.1786C27.571 23.1786 27.041 23.2833 26.554 23.474L26.6998 23.8465C27.1411 23.6736 27.6217 23.5787 28.125 23.5787V23.1786ZM31.1063 24.3762C30.3323 23.6346 29.2817 23.1786 28.125 23.1786V23.5787C29.1745 23.5787 30.1271 23.9919 30.8295 24.665L31.1063 24.3762ZM38.2288 19.2505L30.8541 24.3561L31.0818 24.685L38.4565 19.5794L38.2288 19.2505ZM39.6508 19.5091C39.3295 19.045 38.6929 18.9292 38.2288 19.2505L38.4565 19.5794C38.739 19.3839 39.1264 19.4543 39.3219 19.7367L39.6508 19.5091ZM39.3923 20.931C39.8563 20.6098 39.9721 19.9731 39.6508 19.5091L39.3219 19.7367C39.5175 20.0192 39.447 20.4066 39.1646 20.6022L39.3923 20.931ZM32.0184 26.036L39.3923 20.931L39.1646 20.6022L31.7907 25.7072L32.0184 26.036ZM32.4348 27.4885C32.4348 26.8869 32.3114 26.3135 32.0884 25.7928L31.7207 25.9503C31.9228 26.4222 32.0348 26.942 32.0348 27.4885H32.4348ZM28.125 31.7983C30.5052 31.7983 32.4348 29.8688 32.4348 27.4885H32.0348C32.0348 29.6478 30.2843 31.3983 28.125 31.3983V31.7983ZM23.8151 27.4885C23.8151 29.8688 25.7447 31.7983 28.125 31.7983V31.3983C25.9656 31.3983 24.2151 29.6478 24.2151 27.4885H23.8151ZM25.1073 24.4115C24.3101 25.1934 23.8151 26.2833 23.8151 27.4885H24.2151C24.2151 26.3951 24.6637 25.4068 25.3873 24.697L25.1073 24.4115ZM18.2253 14.0702L25.0794 24.6629L25.4152 24.4456L18.5611 13.8529L18.2253 14.0702ZM18.5281 12.657C18.0543 12.9636 17.9187 13.5963 18.2253 14.0702L18.5611 13.8529C18.3745 13.5645 18.457 13.1795 18.7454 12.9928L18.5281 12.657ZM19.9413 12.9598C19.6347 12.486 19.002 12.3504 18.5281 12.657L18.7454 12.9928C19.0338 12.8062 19.4189 12.8887 19.6055 13.1771L19.9413 12.9598ZM26.7948 23.5516L19.9413 12.9598L19.6055 13.1771L26.459 23.7689L26.7948 23.5516ZM30.3909 27.4885C30.3909 28.7399 29.3764 29.7544 28.125 29.7544V30.1544C29.5973 30.1544 30.7909 28.9608 30.7909 27.4885H30.3909ZM28.125 25.2226C29.3764 25.2226 30.3909 26.2371 30.3909 27.4885H30.7909C30.7909 26.0162 29.5973 24.8226 28.125 24.8226V25.2226ZM25.8591 27.4885C25.8591 26.2371 26.8735 25.2226 28.125 25.2226V24.8226C26.6526 24.8226 25.4591 26.0162 25.4591 27.4885H25.8591ZM28.125 29.7544C26.8735 29.7544 25.8591 28.7399 25.8591 27.4885H25.4591C25.4591 28.9608 26.6526 30.1544 28.125 30.1544V29.7544Z" fill="#3BA2EC" mask="url(#path-1-outside-1)"/>
<path d="M58.7133 29.9661H58.0833C57.9573 27.5987 56.0253 25.7386 53.6733 25.7386H40.1913C39.8973 25.7386 39.6453 25.8654 39.4353 26.0768L31.9173 33.7709C31.7073 33.9823 31.6233 34.2359 31.6233 34.4896V53.8516C31.6233 56.219 33.4713 58.1637 35.8233 58.2905V58.9246C35.8233 61.3766 37.7973 63.3635 40.2333 63.3635H58.7133C61.1493 63.3635 63.1233 61.3766 63.1233 58.9246V34.405C63.1233 31.953 61.1493 29.9661 58.7133 29.9661ZM51.7833 45.8193C51.7833 46.4112 51.3213 46.8762 50.7333 46.8762H38.9733C38.3853 46.8762 37.9233 46.4112 37.9233 45.8193C37.9233 45.2275 38.3853 44.7624 38.9733 44.7624H50.7333C51.3213 44.7624 51.7833 45.2275 51.7833 45.8193ZM51.7833 50.8924C51.7833 51.4842 51.3213 51.9492 50.7333 51.9492H38.9733C38.3853 51.9492 37.9233 51.4842 37.9233 50.8924C37.9233 50.3005 38.3853 49.8355 38.9733 49.8355H50.7333C51.3213 49.8355 51.7833 50.3005 51.7833 50.8924ZM43.1733 39.6894C43.7613 39.6894 44.2233 40.1544 44.2233 40.7463C44.2233 41.3381 43.7613 41.8032 43.1733 41.8032H38.9733C38.3853 41.8032 37.9233 41.3381 37.9233 40.7463C37.9233 40.1544 38.3853 39.6894 38.9733 39.6894H43.1733ZM34.8573 33.7709L39.1833 29.332V33.1368C39.1833 33.475 38.8893 33.7709 38.5533 33.7709H34.8573ZM61.0233 58.9246C61.0233 60.1929 59.9733 61.2498 58.7133 61.2498H40.2333C38.9733 61.2498 37.9233 60.1929 37.9233 58.9246V58.2905H53.6733C56.1093 58.2905 58.0833 56.3036 58.0833 53.8516V32.0799H58.7133C59.9733 32.0799 61.0233 33.1368 61.0233 34.405V58.9246Z" fill="#3BA2EC"/>
</svg>
