<svg width="51" height="52" viewBox="0 0 51 52" fill="none" xmlns="http://www.w3.org/2000/svg">
<path d="M50.8677 50.0687C50.8408 49.4896 50.395 48.9855 49.7935 48.9855H21.0098C21.0044 48.9909 20.999 48.9962 20.999 49.0016H20.9937C20.9937 49.0016 20.9937 49.0016 20.9883 49.0016C20.9883 49.0016 20.9883 49.0016 20.9883 48.9962C20.9883 48.9909 20.9883 48.9801 20.9937 48.9801H2.50098C2.43115 48.9801 2.34521 48.9909 2.29688 48.9909V1.56492C2.29688 1.00186 1.80273 0.465608 1.22266 0.49242C0.642578 0.519233 0.148437 0.96432 0.148437 1.56492V48.1007C0.148437 48.7335 0.132324 49.3662 0.137695 49.999C0.137695 50.0258 0.132324 50.0419 0.132324 50.0687C0.132324 50.6479 0.621094 51.1305 1.20117 51.1305H46.7319C46.9629 51.1305 47.1992 51.1412 47.4302 51.1412C47.5913 51.1412 47.7524 51.1412 47.9136 51.1412C48.0049 51.152 48.1016 51.152 48.1982 51.1359C48.7031 51.1412 49.208 51.152 49.7129 51.1466C49.7397 51.1466 49.7666 51.1573 49.7935 51.1573C50.3574 51.1466 50.8945 50.6479 50.8677 50.0687ZM20.9775 49.0284C20.9722 49.0338 20.9668 49.0445 20.9614 49.0499C20.9399 49.0767 20.9185 49.1035 20.897 49.1303C20.9185 49.1035 20.9399 49.0659 20.9614 49.0391C20.9668 49.0338 20.9722 49.0338 20.9775 49.0284C20.9829 49.023 20.9829 49.0177 20.9883 49.0123C20.9829 49.023 20.9829 49.0284 20.9775 49.0284Z" fill="#3BA2EC"/>
<path d="M47.8008 48.9855H22.8306C22.8306 48.9802 22.8359 48.9802 22.8359 48.9748C24.5654 46.1434 25.7578 41.2314 26.7891 35.8152C26.7891 35.8152 26.7891 35.8152 26.7891 35.8099V35.8045C29.0664 23.8193 30.5542 9.34058 35.3076 9.34058C42.2256 9.34058 42.231 39.939 47.8008 48.9855Z" fill="#3BA2EC"/>
<path d="M25.355 33.6059C25.2852 33.992 25.2153 34.3835 25.1401 34.7696C24.689 37.1988 24.2002 39.628 23.5718 42.0196C23.2979 43.0707 22.9917 44.1164 22.6372 45.1406C22.4707 45.6179 22.2988 46.0844 22.1055 46.551C22.1001 46.5617 22.0947 46.5778 22.0894 46.5885C22.0786 46.6153 22.0679 46.6368 22.0571 46.6582C22.0088 46.7655 21.9605 46.8781 21.9121 46.9853C21.8154 47.1945 21.7188 47.3982 21.6113 47.602C21.4341 47.9452 21.2461 48.2777 21.042 48.5994C20.9614 48.7281 20.8755 48.8407 20.7896 48.9641C20.7842 48.9694 20.7788 48.9748 20.7788 48.9748H2.96826C2.74805 48.9748 2.52246 48.9748 2.30225 48.9748H2.28613C8.70459 42.3897 8.84961 22.1355 17.0996 22.1355C21.3481 22.1355 23.4482 27.498 25.355 33.6059Z" fill="#3BA2EC"/>
</svg>
