<svg width="50" height="47" viewBox="0 0 50 47" fill="none" xmlns="http://www.w3.org/2000/svg">
<path d="M40.986 0.680489C39.4994 0.61618 38.0307 1.02753 36.788 1.85609C35.5454 2.68466 34.592 3.88834 34.0632 5.29646C33.5343 6.70458 33.4569 8.24557 33.8418 9.70077C34.2267 11.156 35.0545 12.4515 36.2077 13.4035L34.0843 15.1878C33.1109 14.0767 31.9159 13.1872 30.578 12.578C29.2402 11.9689 27.79 11.6539 26.3231 11.6539C24.8562 11.6539 23.406 11.9689 22.0682 12.578C20.7303 13.1872 19.5353 14.0767 18.5619 15.1878L15.17 12.335C15.9894 11.146 16.3256 9.68354 16.1088 8.25044C15.8921 6.81735 15.139 5.5236 14.0057 4.63745C12.8724 3.75129 11.4458 3.34064 10.0216 3.49061C8.59739 3.64059 7.28478 4.33977 6.35584 5.44308C5.4269 6.54638 4.95288 7.96927 5.03202 9.41685C5.11116 10.8644 5.7374 12.2256 6.78094 13.2184C7.82448 14.2111 9.20528 14.7592 10.6371 14.7491C12.069 14.739 13.4421 14.1715 14.4719 13.1641L17.8908 16.0405C16.629 17.8242 15.9504 19.9631 15.9504 22.1572C15.9504 24.3513 16.629 26.4902 17.8908 28.2739L15.9696 29.8895C14.1306 28.2341 11.7266 27.3697 9.26821 27.4801C6.80986 27.5906 4.49088 28.6669 2.80386 30.4808C1.11685 32.2946 0.194727 34.703 0.233376 37.1942C0.272025 39.6855 1.2684 42.0633 3.01085 43.8226C4.7533 45.5819 7.10452 46.5841 9.56508 46.6163C12.0256 46.6485 14.4017 45.7081 16.1884 43.995C17.9752 42.2818 19.0319 39.9307 19.1341 37.4414C19.2362 34.952 18.3759 32.5204 16.7357 30.663L18.5619 29.1266C19.5353 30.2377 20.7303 31.1272 22.0682 31.7364C23.406 32.3455 24.8562 32.6604 26.3231 32.6604C27.79 32.6604 29.2402 32.3455 30.578 31.7364C31.9159 31.1272 33.1109 30.2377 34.0843 29.1266L37.5897 32.0755C35.9977 33.2579 34.9203 35.0191 34.584 36.989C34.2478 38.9589 34.6788 40.984 35.7865 42.6388C36.8942 44.2937 38.5924 45.4494 40.5241 45.8629C42.4558 46.2765 44.4706 45.9157 46.1451 44.8566C47.8196 43.7974 49.0234 42.1221 49.5035 40.183C49.9835 38.2439 49.7025 36.192 48.7195 34.4584C47.7364 32.7247 46.1279 31.4443 44.2319 30.8863C42.3359 30.3284 40.3002 30.5364 38.5525 31.4665L34.7575 28.2739C36.0194 26.4902 36.698 24.3513 36.698 22.1572C36.698 19.9631 36.0194 17.8242 34.7575 16.0405L37.1262 14.0467C38.0553 14.5931 39.0949 14.9184 40.1665 14.9978C41.2381 15.0772 42.3135 14.9087 43.3113 14.5051C44.3091 14.1016 45.2031 13.4734 45.9257 12.6683C46.6482 11.8632 47.1804 10.9022 47.482 9.85803C47.7835 8.81387 47.8464 7.71385 47.6661 6.64141C47.4857 5.56897 47.0667 4.5521 46.4408 3.66785C45.8149 2.7836 44.9985 2.0552 44.0535 1.53762C43.1084 1.02005 42.0594 0.726923 40.986 0.680489ZM26.4144 15.8117C26.9857 15.8319 27.5347 16.0411 27.9775 16.4072C28.4203 16.7732 28.7325 17.276 28.8663 17.8387C29.0001 18.4014 28.9482 18.993 28.7185 19.523C28.4888 20.053 28.094 20.4923 27.5944 20.7736V21.4211C27.5942 21.4813 27.613 21.54 27.6479 21.5887C27.6829 21.6375 27.7323 21.6738 27.7889 21.6922L30.0981 22.4252C30.2409 22.4706 30.3691 22.5537 30.4696 22.666C30.5701 22.7784 30.6391 22.9158 30.6697 23.0641L31.1679 25.5065C31.1915 25.6223 31.1912 25.7417 31.1668 25.8573C31.1425 25.9729 31.0946 26.0822 31.0263 26.178C30.958 26.2739 30.8708 26.3544 30.7701 26.4142C30.6695 26.4741 30.5577 26.5121 30.4417 26.5259C27.7059 26.848 24.9425 26.848 22.2067 26.5259C22.0905 26.5124 21.9784 26.4745 21.8775 26.4148C21.7767 26.355 21.6892 26.2746 21.6206 26.1787C21.5521 26.0828 21.5041 25.9736 21.4796 25.8578C21.4551 25.7421 21.4547 25.6224 21.4783 25.5065L21.9787 23.0641C22.0092 22.9158 22.0783 22.7784 22.1788 22.666C22.2793 22.5537 22.4075 22.4706 22.5503 22.4252L24.8595 21.6922C24.9165 21.6741 24.9663 21.638 25.0017 21.5892C25.0371 21.5405 25.0562 21.4816 25.0561 21.4211V20.7736C24.5433 20.4848 24.1412 20.0296 23.9146 19.4815C23.6881 18.9334 23.6501 18.3241 23.8068 17.7514C23.9636 17.1788 24.306 16.6762 24.7789 16.3244C25.2518 15.9726 25.8279 15.792 26.4144 15.8117Z" fill="#3BA2EC"/>
</svg>
