<svg width="60" height="42" viewBox="0 0 60 42" fill="none" xmlns="http://www.w3.org/2000/svg">
<path d="M53.8666 21.623H47.1503C46.8395 21.623 46.5415 21.4996 46.3217 21.2798C46.1019 21.06 45.9785 20.762 45.9785 20.4512C45.9785 20.1404 46.1019 19.8423 46.3217 19.6225C46.5415 19.4028 46.8395 19.2793 47.1503 19.2793H53.8666C54.1774 19.2793 54.4755 19.4028 54.6953 19.6225C54.915 19.8423 55.0385 20.1404 55.0385 20.4512C55.0385 20.762 54.915 21.06 54.6953 21.2798C54.4755 21.4996 54.1774 21.623 53.8666 21.623Z" fill="#3BA2EC"/>
<path d="M56.2704 23.791C55.6098 23.791 54.9641 23.5951 54.4149 23.2282C53.8656 22.8612 53.4376 22.3396 53.1848 21.7293C52.932 21.119 52.8658 20.4475 52.9947 19.7996C53.1236 19.1517 53.4417 18.5566 53.9088 18.0895C54.3758 17.6225 54.971 17.3044 55.6188 17.1755C56.2667 17.0466 56.9382 17.1128 57.5485 17.3656C58.1588 17.6183 58.6804 18.0464 59.0474 18.5957C59.4144 19.1449 59.6102 19.7906 59.6102 20.4512C59.6092 21.3366 59.257 22.1856 58.6309 22.8117C58.0048 23.4378 57.1559 23.79 56.2704 23.791Z" fill="#3BA2EC"/>
<path d="M44.0403 11.3245C43.8086 11.3245 43.582 11.2557 43.3894 11.127C43.1967 10.9982 43.0465 10.8152 42.9578 10.6011C42.8691 10.387 42.8459 10.1514 42.8911 9.92406C42.9363 9.69676 43.0479 9.48797 43.2118 9.32408L47.9611 4.57501C48.1808 4.35526 48.4789 4.23181 48.7896 4.23181C49.1004 4.23181 49.3984 4.35526 49.6182 4.57501C49.8379 4.79476 49.9614 5.0928 49.9614 5.40356C49.9614 5.71433 49.8379 6.01237 49.6182 6.23212L44.8689 10.9812C44.7602 11.0902 44.6311 11.1766 44.4889 11.2355C44.3467 11.2945 44.1942 11.3247 44.0403 11.3245Z" fill="#3BA2EC"/>
<path d="M50.4893 7.04194C49.9401 7.04192 49.3995 6.90647 48.9152 6.64757C48.4309 6.38868 48.0179 6.01435 47.7129 5.55773C47.4078 5.10111 47.2201 4.5763 47.1663 4.02979C47.1125 3.48329 47.1943 2.93195 47.4045 2.42462C47.6147 1.91729 47.9468 1.46963 48.3713 1.12129C48.7958 0.772954 49.2997 0.534694 49.8383 0.427618C50.3769 0.320542 50.9336 0.347954 51.4591 0.507425C51.9846 0.666897 52.4626 0.953506 52.8509 1.34186V1.34209C53.3182 1.80896 53.6365 2.40398 53.7655 3.05183C53.8945 3.69968 53.8284 4.37123 53.5755 4.98149C53.3227 5.59175 52.8945 6.11327 52.3451 6.48005C51.7957 6.84683 51.1499 7.04238 50.4893 7.04194Z" fill="#3BA2EC"/>
<path d="M49.3188 37.1999C49.1648 37.2001 49.0124 37.1698 48.8702 37.1109C48.728 37.052 48.5989 36.9655 48.4902 36.8566L43.7409 32.1075C43.5212 31.8877 43.3977 31.5897 43.3977 31.2789C43.3977 30.9682 43.5212 30.6701 43.7409 30.4504C43.9606 30.2306 44.2587 30.1072 44.5695 30.1072C44.8802 30.1072 45.1783 30.2306 45.398 30.4504L50.1473 35.1994C50.3112 35.3633 50.4227 35.5721 50.468 35.7994C50.5132 36.0267 50.4899 36.2623 50.4013 36.4764C50.3126 36.6905 50.1624 36.8736 49.9697 37.0023C49.777 37.1311 49.5505 37.1998 49.3188 37.1999H49.3188Z" fill="#3BA2EC"/>
<path d="M51.0184 41.0661C50.2461 41.0656 49.4979 40.7973 48.9012 40.307C48.3045 39.8167 47.8962 39.1346 47.746 38.377C47.5958 37.6195 47.7129 36.8333 48.0774 36.1523C48.4418 35.4714 49.0311 34.9379 49.7448 34.6428C50.4585 34.3476 51.2525 34.3091 51.9914 34.5337C52.7304 34.7583 53.3686 35.2321 53.7973 35.8745C54.2261 36.5169 54.4188 37.2881 54.3427 38.0567C54.2666 38.8252 53.9264 39.5436 53.38 40.0895V40.0897C53.0701 40.4 52.7019 40.6459 52.2966 40.8135C51.8914 40.981 51.457 41.0669 51.0184 41.0661Z" fill="#3BA2EC"/>
<path d="M12.4603 21.623H5.7438C5.433 21.623 5.13493 21.4996 4.91516 21.2798C4.69539 21.06 4.57193 20.762 4.57193 20.4512C4.57193 20.1404 4.69539 19.8423 4.91516 19.6225C5.13493 19.4028 5.433 19.2793 5.7438 19.2793H12.4603C12.7711 19.2793 13.0692 19.4028 13.289 19.6225C13.5088 19.8423 13.6322 20.1404 13.6322 20.4512C13.6322 20.762 13.5088 21.06 13.289 21.2798C13.0692 21.4996 12.7711 21.623 12.4603 21.623Z" fill="#3BA2EC"/>
<path d="M3.33985 23.791C2.67929 23.791 2.03356 23.5951 1.48433 23.2282C0.935093 22.8612 0.507017 22.3396 0.254232 21.7293C0.00144708 21.119 -0.0646929 20.4475 0.0641757 19.7996C0.193044 19.1517 0.511134 18.5566 0.978219 18.0895C1.4453 17.6225 2.04041 17.3044 2.68827 17.1755C3.33614 17.0466 4.00767 17.1128 4.61795 17.3656C5.22822 17.6183 5.74984 18.0464 6.11682 18.5957C6.48381 19.1449 6.67969 19.7906 6.67969 20.4512C6.67868 21.3366 6.32649 22.1856 5.70036 22.8117C5.07424 23.4378 4.22532 23.79 3.33985 23.791Z" fill="#3BA2EC"/>
<path d="M15.5701 11.3245C15.4162 11.3247 15.2638 11.2945 15.1216 11.2356C14.9794 11.1766 14.8503 11.0902 14.7416 10.9812L9.99252 6.23212C9.77278 6.01237 9.64932 5.71433 9.64932 5.40356C9.64932 5.0928 9.77278 4.79476 9.99252 4.57501C10.2123 4.35526 10.5103 4.23181 10.8211 4.23181C11.1318 4.23181 11.4299 4.35526 11.6496 4.57501L16.3987 9.32409C16.5626 9.48798 16.6741 9.69677 16.7193 9.92407C16.7645 10.1514 16.7413 10.387 16.6526 10.6011C16.564 10.8152 16.4138 10.9982 16.2211 11.127C16.0284 11.2557 15.8019 11.3245 15.5701 11.3245V11.3245Z" fill="#3BA2EC"/>
<path d="M9.12116 7.04218C8.34881 7.04174 7.60051 6.77352 7.00374 6.28323C6.40698 5.79293 5.99867 5.11088 5.84839 4.35329C5.69811 3.59571 5.81515 2.80945 6.17958 2.12848C6.544 1.44751 7.13326 0.913966 7.84696 0.618745C8.56066 0.323524 9.35464 0.284894 10.0936 0.509436C10.8326 0.733978 11.4709 1.2078 11.8997 1.85017C12.3285 2.49255 12.5213 3.26373 12.4453 4.03233C12.3693 4.80092 12.0291 5.51939 11.4828 6.0653C11.1729 6.37567 10.8047 6.62175 10.3994 6.78939C9.99416 6.95704 9.55975 7.04294 9.12116 7.04218Z" fill="#3BA2EC"/>
<path d="M10.2917 37.1999C10.0599 37.1998 9.83338 37.1311 9.6407 37.0023C9.44802 36.8736 9.29784 36.6905 9.20916 36.4764C9.12048 36.2623 9.09727 36.0267 9.14247 35.7994C9.18768 35.5721 9.29926 35.3633 9.46311 35.1994L14.2124 30.4504C14.4322 30.2306 14.7302 30.1072 15.041 30.1072C15.3517 30.1072 15.6498 30.2306 15.8695 30.4504C16.0893 30.6701 16.2127 30.9682 16.2127 31.2789C16.2127 31.5897 16.0893 31.8877 15.8695 32.1075L11.1202 36.8566C11.0116 36.9656 10.8824 37.052 10.7402 37.1109C10.598 37.1699 10.4456 37.2001 10.2917 37.1999Z" fill="#3BA2EC"/>
<path d="M8.5918 41.0661C7.81948 41.0656 7.07125 40.7972 6.47458 40.3069C5.87792 39.8165 5.46972 39.1345 5.31955 38.3769C5.16938 37.6193 5.28652 36.8331 5.65101 36.1522C6.01551 35.4713 6.60481 34.9379 7.31851 34.6428C8.03221 34.3476 8.82616 34.3091 9.56509 34.5337C10.304 34.7583 10.9422 35.2322 11.3709 35.8746C11.7997 36.517 11.9924 37.2881 11.9163 38.0567C11.8402 38.8252 11.5 39.5436 10.9536 40.0895C10.6437 40.3999 10.2755 40.6459 9.8702 40.8135C9.46487 40.9812 9.03041 41.067 8.5918 41.0661Z" fill="#3BA2EC"/>
<path d="M29.8053 2.57996C26.2183 2.57993 22.712 3.64356 19.7295 5.63633C16.7471 7.62909 14.4226 10.4615 13.0499 13.7754C11.6772 17.0893 11.3181 20.7358 12.0178 24.2538C12.7176 27.7718 14.4448 31.0033 16.9811 33.5396C19.5174 36.076 22.7489 37.8032 26.2669 38.503C29.7849 39.2028 33.4314 38.8437 36.7453 37.4711C40.0592 36.0984 42.8916 33.774 44.8845 30.7916C46.8773 27.8092 47.9409 24.3028 47.9409 20.7159C47.9355 15.9076 46.0231 11.2979 42.6232 7.89791C39.2232 4.49794 34.6135 2.58543 29.8053 2.57996ZM38.4372 26.4863L30.863 30.3095C30.5217 30.6509 30.0587 30.8427 29.5759 30.8427C29.0931 30.8427 28.6302 30.6509 28.2888 30.3095L20.7146 26.4863C20.5456 26.3173 20.4115 26.1166 20.32 25.8958C20.2286 25.6749 20.1815 25.4382 20.1815 25.1992C20.1815 24.9601 20.2286 24.7234 20.32 24.5026C20.4115 24.2818 20.5456 24.0811 20.7146 23.9121L21.8843 23.1769L27.8794 26.2029C28.3438 26.6247 28.9486 26.8584 29.5759 26.8584C30.2032 26.8584 30.808 26.6247 31.2724 26.2029L37.2677 23.177L38.4372 23.9121C38.6062 24.0811 38.7403 24.2818 38.8318 24.5026C38.9233 24.7234 38.9703 24.9601 38.9703 25.1992C38.9703 25.4382 38.9233 25.6749 38.8318 25.8958C38.7403 26.1166 38.6062 26.3173 38.4372 26.4863ZM38.4372 21.7988L30.863 25.622C30.5217 25.9634 30.0587 26.1552 29.5759 26.1552C29.0931 26.1552 28.6302 25.9634 28.2888 25.622L20.7146 21.7988C20.5456 21.6298 20.4115 21.4291 20.32 21.2083C20.2286 20.9874 20.1815 20.7507 20.1815 20.5117C20.1815 20.2726 20.2286 20.0359 20.32 19.8151C20.4115 19.5942 20.5456 19.3936 20.7146 19.2246L21.8843 18.4894L27.8794 21.5154C28.3438 21.9372 28.9486 22.1709 29.5759 22.1709C30.2032 22.1709 30.808 21.9372 31.2724 21.5154L37.2677 18.4895L38.4372 19.2246C38.6062 19.3936 38.7403 19.5942 38.8318 19.8151C38.9233 20.0359 38.9703 20.2726 38.9703 20.5117C38.9703 20.7507 38.9233 20.9874 38.8318 21.2083C38.7403 21.4291 38.6062 21.6298 38.4372 21.7988ZM38.4372 17.1113L30.863 20.9345C30.5217 21.2759 30.0587 21.4677 29.5759 21.4677C29.0931 21.4677 28.6302 21.2759 28.2888 20.9345L20.7146 17.1113C20.5456 16.9423 20.4115 16.7416 20.32 16.5208C20.2286 16.2999 20.1815 16.0632 20.1815 15.8242C20.1815 15.5851 20.2286 15.3484 20.32 15.1276C20.4115 14.9067 20.5456 14.7061 20.7146 14.5371L28.2888 11.1826C28.6302 10.8413 29.0931 10.6495 29.5759 10.6495C30.0587 10.6495 30.5217 10.8413 30.863 11.1826L38.4372 14.5371C38.6062 14.7061 38.7403 14.9067 38.8318 15.1276C38.9233 15.3484 38.9703 15.5851 38.9703 15.8242C38.9703 16.0632 38.9233 16.2999 38.8318 16.5208C38.7403 16.7416 38.6062 16.9423 38.4372 17.1113Z" fill="#3BA2EC"/>
</svg>
